<?xml version="1.0" encoding="utf-8"?>
<!-- Generator: Adobe Illustrator 26.2.1, SVG Export Plug-In . SVG Version: 6.00 Build 0)  -->
<svg version="1.1" id="Layer_1" xmlns="http://www.w3.org/2000/svg" xmlns:xlink="http://www.w3.org/1999/xlink" x="0px" y="0px"
	 viewBox="0 0 22 24" style="enable-background:new 0 0 22 24;" xml:space="preserve">
<style type="text/css">
	.st0{fill-rule:evenodd;clip-rule:evenodd;fill:#B2B1B1;}
</style>
<g>
	<path class="st0" d="M11,0C8.2,0,6,2.2,6,5s2.2,5,5,5c2.8,0,5-2.2,5-5S13.8,0,11,0z M8,5c0-1.7,1.3-3,3-3c1.7,0,3,1.3,3,3
		s-1.3,3-3,3C9.3,8,8,6.7,8,5z"/>
	<path class="st0" d="M10.6,12C4.7,12,0,16.7,0,22.6C0,23.4,0.6,24,1.4,24h19.1c0.8,0,1.4-0.6,1.4-1.4C22,16.7,17.3,12,11.4,12
		L10.6,12z M11.4,14c4.5,0,8.3,3.5,8.5,8H2c0.3-4.5,4-8,8.5-8H11.4z"/>
</g>
</svg>
